<svg viewBox="0 0 400 400" xmlns="http://www.w3.org/2000/svg"><rect fill="#011469" height="400" rx="100" width="400"/><g fill="#137dc5"><path d="m236.54 236.61a531.54 531.54 0 0 1 -56 49 81.66 81.66 0 0 0 19.46 2.39 82.9 82.9 0 0 0 82.81-82.81 81.7 81.7 0 0 0 -2.1-18.23 549.88 549.88 0 0 1 -44.17 49.65z"/><path d="m148.72 270.14c20.54-13.82 43.48-33.12 65.85-55.48 20-20 37.5-40.51 51.1-59.64a82.64 82.64 0 0 0 -65.74-32.64c-1.7 0-3.34.16-5 .26a26 26 0 1 1 -40.46 13.43 82.61 82.61 0 0 0 -5.72 134.07zm71.92-106.37a10.36 10.36 0 1 1 -10.37 10.36 10.37 10.37 0 0 1 10.37-10.36zm-58.93 22.84a25.88 25.88 0 1 1 -25.87 25.88 25.91 25.91 0 0 1 25.87-25.88z"/><path d="m306.08 93.86c-14.29-14.24-50.55 7.31-74 24a92.71 92.71 0 0 1 11 4.9c33-22.58 51.45-25.71 55.6-21.54 3.58 3.58 2.4 16.67-12.67 41.8-14.31 23.84-37.11 51.88-64.18 79-61.13 61.14-111.54 85.98-120.7 76.81-3.83-3.83-1.48-19.73 17.22-48.83a87.42 87.42 0 0 1 -5.1-11.07c-15.79 23.36-32.25 54.38-19.46 67.21 3.18 3.17 7.57 4.64 12.9 4.64 27 0 78.5-37.48 122.53-81.49 27.65-27.67 51-56.43 65.73-81 16.32-27.18 20.05-45.5 11.13-54.43z"/></g></svg>