<svg viewBox="0 0 444 105" xmlns="http://www.w3.org/2000/svg" xmlns:xlink="http://www.w3.org/1999/xlink"><linearGradient id="a" gradientTransform="matrix(444 0 0 -105 277761 63962)" gradientUnits="userSpaceOnUse" x1="-625.59" x2="-624.59" y1="608.66" y2="608.66"><stop offset="0" stop-color="#2d388a"/><stop offset="1" stop-color="#00aeef"/></linearGradient><rect fill="url(#a)" height="105" rx="10" width="444"/><g fill="#cfdcfc"><path d="m34.47 36a.48.48 0 0 1 .48-.47h6.1a.48.48 0 0 1 .48.47v34a.48.48 0 0 1 -.48.48h-5.89a.49.49 0 0 1 -.47-.27l-7.69-17.45v17.24a.48.48 0 0 1 -.48.48h-6a.43.43 0 0 1 -.52-.48v-34a.43.43 0 0 1 .42-.47h6.26a.42.42 0 0 1 .37.26l7.42 17.13zm3.82 31.34v-28.68c0-.37-.69-.48-.69 0v27.25l-13.84-27.36c-.15-.21-.58-.21-.58.11v28.58a.32.32 0 1 0 .64 0v-27.24l13.78 27.34c.21.37.69.27.69-.05zm25.71-32.34c4.56 0 7.74 1 9.76 3.18 1.59 1.75 2.33 4.24 2.33 7.79v14c0 3.66-.74 6.2-2.33 7.9-2.08 2.07-5.21 3.13-9.76 3.13-4.72 0-7.79-1.06-9.81-3.18-1.53-1.7-2.38-4.24-2.38-7.9v-13.92c0-3.55.85-6 2.38-7.84 2.06-2.16 5.19-3.16 9.81-3.16zm5 23.33v-10.61c0-4.66-2.49-5.62-4.77-5.62h-.64c-3.39 0-4.72 2.18-4.72 5.62v10.61c.03 4.67 2.52 5.67 4.75 5.67h.64c3.39 0 4.74-2.28 4.74-5.67zm-13.89-12v13.16a8.38 8.38 0 0 0 2.12 6.1 8.43 8.43 0 0 0 6.1 2.12h1.37c5 0 8.22-3.18 8.22-8.22v-13.14c.08-5.41-2.83-8.35-8.19-8.35h-1.37c-5.36 0-8.22 2.94-8.22 8.35zm9.62 20.67h-1.37a6.91 6.91 0 0 1 -7.69-7.53v-13.12c0-5 2.7-7.69 7.69-7.69h1.37c5 0 7.53 2.6 7.53 7.69v13.14a7.62 7.62 0 0 1 -2.12 5.62 8.25 8.25 0 0 1 -5.41 1.89zm26.13-31.2 5.83 22 6-22c.11-.16.21-.32.42-.32h6.05a.42.42 0 0 1 .42.58l-9.18 34.09c-.11.21-.21.32-.42.32h-6.58a.39.39 0 0 1 -.37-.32l-9.17-34.09a.48.48 0 0 1 .48-.58h6.09c.22 0 .32.16.43.32zm5.72 31-8.85-28.25c-.16-.42-.74-.16-.58.16l8.85 28.29c.21.8 1.06.85 1.32 0l8.49-28.31c.1-.32-.48-.53-.59-.16zm28-31c.06-.16.16-.32.37-.32h6.58a.4.4 0 0 1 .37.32l9.17 34.09a.48.48 0 0 1 -.48.58h-6a.39.39 0 0 1 -.37-.32l-2.07-7.42h-7.74l-2 7.42c-.06.21-.16.32-.37.32h-6.1a.48.48 0 0 1 -.48-.58zm1.49 20.35h4.4l-2.28-8zm8.16 3.13 2.44 8c.11.31.69.26.53-.16l-8.5-28.25a.62.62 0 0 0 -1.22 0l-8.22 28.21c-.16.37.43.53.58.21l2.34-8zm-11.87-.69 5.78-19.51 5.86 19.51z"/><path d="m204.09 63.11a155.71 155.71 0 0 1 -16.39 14.33 24.14 24.14 0 0 0 29.91-23.52 23.92 23.92 0 0 0 -.61-5.33 162.43 162.43 0 0 1 -12.91 14.52z"/><path d="m178.41 72.91a134.36 134.36 0 0 0 19.26-16.22 139.78 139.78 0 0 0 14.94-17.45 24.16 24.16 0 0 0 -19.22-9.54c-.5 0-1 .05-1.47.07a7.55 7.55 0 1 1 -12.15 6 7.37 7.37 0 0 1 .31-2 24.16 24.16 0 0 0 -1.67 39.21zm21-31.11a3 3 0 1 1 -3 3 3 3 0 0 1 3.03-3zm-17.23 6.69a7.57 7.57 0 1 1 -7.57 7.56 7.58 7.58 0 0 1 7.6-7.56z"/><path d="m224.43 21.36c-4.18-4.17-14.78 2.14-21.63 7a30.15 30.15 0 0 1 3.2 1.43c9.66-6.6 15-7.51 16.26-6.29 1.05 1 .7 4.87-3.71 12.22-4.18 7-10.85 15.17-18.77 23.1-17.87 17.9-32.61 25.18-35.29 22.48-1.12-1.12-.43-5.77 5-14.27a27.19 27.19 0 0 1 -1.5-3.24c-4.61 6.83-9.44 15.9-5.69 19.65a5.13 5.13 0 0 0 3.78 1.36c7.89 0 22.95-11 35.83-23.83 8.09-8.1 14.92-16.51 19.23-23.69 4.86-7.95 5.86-13.28 3.29-15.92z"/><path d="m259.94 49c4 1.91 9.28 4.93 9.28 10.39a13.35 13.35 0 0 1 -2 7.26c-2 2.92-5 4.35-9.28 4.35-4.51 0-9.76-2.17-11.4-7.1a.37.37 0 0 1 .16-.43l4.88-4.19a.46.46 0 0 1 .69.11c.1.26.31.69.58 1.22a5.79 5.79 0 0 0 4.82 3.29c1.65 0 3.87-.91 3.87-3.45s-3.34-3.82-5.4-4.61a24 24 0 0 1 -6.9-4 9 9 0 0 1 -3.24-6.84c0-6.63 6.1-10 11.88-10 4.56 0 7.95 2.39 10.18 7.1a.5.5 0 0 1 -.16.59l-4.72 3.31c-.21.11-.32.11-.53-.15-1.8-2.6-3.4-3.82-5.52-3.82-1.11 0-3.71.42-3.71 2.38 0 2.39 4.4 3.61 6.52 4.62zm-9.65 14.63c1.33 2.65 5 4.19 8 4.19a7.26 7.26 0 0 0 7.42-6.68c.53-4.93-3.34-7-7.16-9l-1.69-.74c-3.93-1.75-6.79-3.08-6.79-6.74 0-4 3.71-5.88 7.37-5.88a7.13 7.13 0 0 1 6 3.18c.32.42.85 0 .53-.37a8 8 0 0 0 -6.52-3.45c-4.19 0-8 2.07-8 6.52 0 4 3.18 5.52 7.21 7.37l1.65.8c5.25 2.49 7.16 4.82 6.73 8.22-.79 5.4-4.93 6.09-6.73 6.09a8.64 8.64 0 0 1 -7.43-3.87.32.32 0 0 0 -.59.36zm31.85-27.89 4.62 8.91 4.5-8.91c.16-.26.22-.26.43-.26h5.94a.44.44 0 0 1 .42.58l-7.69 17.87v16.07a.47.47 0 0 1 -.47.48h-6.26a.47.47 0 0 1 -.37-.48v-16.07l-7.9-17.76c-.11-.37.05-.69.42-.69h5.94c.21 0 .28 0 .42.26zm4.88 17 6.63-13.79c.16-.31-.37-.58-.58-.21l-6.31 13.2-6.47-13.2c-.21-.37-.8-.1-.64.27l6.79 13.73v14.6a.29.29 0 1 0 .58 0zm31.16-3.74c4 1.91 9.28 4.93 9.28 10.39a13.35 13.35 0 0 1 -2 7.26c-2 2.92-5 4.35-9.28 4.35-4.51 0-9.76-2.17-11.4-7.1a.37.37 0 0 1 .16-.43l4.88-4.19a.46.46 0 0 1 .69.11c.1.26.31.69.58 1.22a5.79 5.79 0 0 0 4.82 3.29c1.65 0 3.87-.91 3.87-3.45s-3.34-3.82-5.4-4.61a24 24 0 0 1 -6.9-4 9 9 0 0 1 -3.24-6.84c0-6.63 6.1-10 11.88-10 4.55 0 7.95 2.39 10.17 7.1a.49.49 0 0 1 -.15.59l-4.72 3.31c-.21.11-.32.11-.53-.15-1.81-2.6-3.4-3.82-5.52-3.82-1.11 0-3.71.42-3.71 2.38 0 2.36 4.4 3.59 6.52 4.59zm-9.65 14.63c1.33 2.65 5 4.19 8 4.19a7.27 7.27 0 0 0 7.42-6.68c.53-4.93-3.34-7-7.16-9l-1.7-.74c-3.92-1.75-6.78-3.08-6.78-6.74 0-4 3.71-5.88 7.37-5.88a7.13 7.13 0 0 1 6 3.18c.32.42.85 0 .53-.37a8 8 0 0 0 -6.52-3.45c-4.19 0-8 2.07-8 6.52 0 4 3.18 5.52 7.21 7.37l1.65.8c5.25 2.49 7.15 4.82 6.73 8.22-.8 5.4-4.93 6.09-6.73 6.09a8.64 8.64 0 0 1 -7.43-3.87.32.32 0 0 0 -.53.32zm33.34-21.53h-7.53a.47.47 0 0 1 -.48-.47v-5.63a.47.47 0 0 1 .48-.47h22.11a.48.48 0 0 1 .48.47v5.68a.48.48 0 0 1 -.48.47h-7.53v27.85a.47.47 0 0 1 -.48.48h-6.09a.47.47 0 0 1 -.48-.48zm11.34-3.71h-16c-.37 0-.37.69 0 .69h7.85v28.1c0 .37.69.37.69 0v-28.1h7.47a.35.35 0 1 0 0-.69zm12.55 32.08a.43.43 0 0 1 -.42-.48v-33.99a.43.43 0 0 1 .42-.47h18a.47.47 0 0 1 .48.47v5.68a.47.47 0 0 1 -.48.47h-11.42v7.22h8.91a.43.43 0 0 1 .42.47v5.78a.43.43 0 0 1 -.42.48h-8.91v7.79h11.45a.47.47 0 0 1 .48.48v5.63a.47.47 0 0 1 -.48.48zm2.66-31.65v28.18a.39.39 0 0 0 .42.43h12.16c.48 0 .38-.64 0-.64h-11.89v-13.79h9.75c.32 0 .32-.74 0-.74h-9.75v-13.18h11.89c.38 0 .48-.69 0-.69h-12.16a.42.42 0 0 0 -.42.43zm55.07-3.34a.48.48 0 0 1 .51.52v34a.48.48 0 0 1 -.48.48h-5.78a.51.51 0 0 1 -.43-.48v-19.62l-5.83 19.77c-.1.21-.21.32-.42.32h-4.19a.44.44 0 0 1 -.42-.32l-5.45-20.15v20a.48.48 0 0 1 -.48.48h-5.89c-.21 0-.37-.21-.37-.48v-34a.42.42 0 0 1 .37-.47h7.37a.53.53 0 0 1 .47.32l6.42 21.47 7-21.47a.36.36 0 0 1 .37-.32zm-3.29 31.76c0 .37.69.47.69 0v-28.58a.35.35 0 0 0 -.32-.27h-2.49c-.21 0-.26.16-.37.27l-8.8 26.24-8.75-26.29c0-.16-.11-.22-.27-.22h-2.59a.34.34 0 0 0 -.32.32v28.53c0 .37.69.47.69 0v-28.16h2l9 26.94c.21.37.37.26.64 0l9-26.94h2v28.16z"/></g></svg>